<?xml version="1.0" encoding="UTF-8" standalone="no"?>
<!DOCTYPE svg PUBLIC "-//W3C//DTD SVG 1.1//EN"
 "http://www.w3.org/Graphics/SVG/1.1/DTD/svg11.dtd">
<!-- Generated by graphviz version 2.42.3 (20191010.1750)
 -->
<!-- Title: %3 Pages: 1 -->
<svg width="614pt" height="260pt"
 viewBox="0.00 0.00 614.02 260.00" xmlns="http://www.w3.org/2000/svg" xmlns:xlink="http://www.w3.org/1999/xlink">
<g id="graph0" class="graph" transform="scale(1 1) rotate(0) translate(4 256)">
<title>%3</title>
<polygon fill="white" stroke="transparent" points="-4,4 -4,-256 610.02,-256 610.02,4 -4,4"/>
<!-- [root] azurerm_resource_group.pamir&#45;rg -->
<g id="node1" class="node">
<title>[root] azurerm_resource_group.pamir&#45;rg</title>
<polygon fill="none" stroke="black" points="434.54,-108 226.75,-108 226.75,-72 434.54,-72 434.54,-108"/>
<text text-anchor="middle" x="330.64" y="-85.8" font-family="Times,serif" font-size="14.00">azurerm_resource_group.pamir&#45;rg</text>
</g>
<!-- [root] provider.azurerm -->
<g id="node2" class="node">
<title>[root] provider.azurerm</title>
<polygon fill="none" stroke="black" points="159.64,-36 59.51,-18 159.64,0 259.78,-18 159.64,-36"/>
<text text-anchor="middle" x="159.64" y="-13.8" font-family="Times,serif" font-size="14.00">provider.azurerm</text>
</g>
<!-- [root] azurerm_resource_group.pamir&#45;rg&#45;&gt;[root] provider.azurerm -->
<g id="edge1" class="edge">
<title>[root] azurerm_resource_group.pamir&#45;rg&#45;&gt;[root] provider.azurerm</title>
<path fill="none" stroke="black" d="M288.81,-71.88C261.16,-60.56 225.18,-45.83 198.22,-34.79"/>
<polygon fill="black" stroke="black" points="199.31,-31.45 188.73,-30.9 196.65,-37.93 199.31,-31.45"/>
</g>
<!-- [root] var.location_list -->
<g id="node3" class="node">
<title>[root] var.location_list</title>
<polygon fill="none" stroke="black" points="377.47,-36 277.82,-36 277.82,0 383.47,0 383.47,-30 377.47,-36"/>
<polyline fill="none" stroke="black" points="377.47,-36 377.47,-30 "/>
<polyline fill="none" stroke="black" points="383.47,-30 377.47,-30 "/>
<text text-anchor="middle" x="330.64" y="-13.8" font-family="Times,serif" font-size="14.00">var.location_list</text>
</g>
<!-- [root] azurerm_resource_group.pamir&#45;rg&#45;&gt;[root] var.location_list -->
<g id="edge2" class="edge">
<title>[root] azurerm_resource_group.pamir&#45;rg&#45;&gt;[root] var.location_list</title>
<path fill="none" stroke="black" d="M330.64,-71.7C330.64,-63.98 330.64,-54.71 330.64,-46.11"/>
<polygon fill="black" stroke="black" points="334.14,-46.1 330.64,-36.1 327.14,-46.1 334.14,-46.1"/>
</g>
<!-- [root] var.resource_group_name -->
<g id="node4" class="node">
<title>[root] var.resource_group_name</title>
<polygon fill="none" stroke="black" points="556.15,-36 401.14,-36 401.14,0 562.15,0 562.15,-30 556.15,-36"/>
<polyline fill="none" stroke="black" points="556.15,-36 556.15,-30 "/>
<polyline fill="none" stroke="black" points="562.15,-30 556.15,-30 "/>
<text text-anchor="middle" x="481.64" y="-13.8" font-family="Times,serif" font-size="14.00">var.resource_group_name</text>
</g>
<!-- [root] azurerm_resource_group.pamir&#45;rg&#45;&gt;[root] var.resource_group_name -->
<g id="edge3" class="edge">
<title>[root] azurerm_resource_group.pamir&#45;rg&#45;&gt;[root] var.resource_group_name</title>
<path fill="none" stroke="black" d="M367.58,-71.88C388.13,-62.35 413.89,-50.41 435.73,-40.28"/>
<polygon fill="black" stroke="black" points="437.22,-43.45 444.82,-36.07 434.28,-37.1 437.22,-43.45"/>
</g>
<!-- [root] meta.count&#45;boundary (EachMode fixup) -->
<g id="node5" class="node">
<title>[root] meta.count&#45;boundary (EachMode fixup)</title>
<ellipse fill="none" stroke="black" cx="174.64" cy="-162" rx="174.79" ry="18"/>
<text text-anchor="middle" x="174.64" y="-157.8" font-family="Times,serif" font-size="14.00">[root] meta.count&#45;boundary (EachMode fixup)</text>
</g>
<!-- [root] meta.count&#45;boundary (EachMode fixup)&#45;&gt;[root] azurerm_resource_group.pamir&#45;rg -->
<g id="edge4" class="edge">
<title>[root] meta.count&#45;boundary (EachMode fixup)&#45;&gt;[root] azurerm_resource_group.pamir&#45;rg</title>
<path fill="none" stroke="black" d="M212.01,-144.23C233.4,-134.63 260.45,-122.5 283.31,-112.24"/>
<polygon fill="black" stroke="black" points="284.81,-115.4 292.5,-108.12 281.94,-109.02 284.81,-115.4"/>
</g>
<!-- [root] provider.azurerm (close) -->
<g id="node6" class="node">
<title>[root] provider.azurerm (close)</title>
<ellipse fill="none" stroke="black" cx="486.64" cy="-162" rx="119.25" ry="18"/>
<text text-anchor="middle" x="486.64" y="-157.8" font-family="Times,serif" font-size="14.00">[root] provider.azurerm (close)</text>
</g>
<!-- [root] provider.azurerm (close)&#45;&gt;[root] azurerm_resource_group.pamir&#45;rg -->
<g id="edge5" class="edge">
<title>[root] provider.azurerm (close)&#45;&gt;[root] azurerm_resource_group.pamir&#45;rg</title>
<path fill="none" stroke="black" d="M450.46,-144.76C428.87,-135.07 401.2,-122.66 377.89,-112.2"/>
<polygon fill="black" stroke="black" points="379.09,-108.9 368.53,-108 376.22,-115.29 379.09,-108.9"/>
</g>
<!-- [root] root -->
<g id="node7" class="node">
<title>[root] root</title>
<ellipse fill="none" stroke="black" cx="330.64" cy="-234" rx="46.9" ry="18"/>
<text text-anchor="middle" x="330.64" y="-229.8" font-family="Times,serif" font-size="14.00">[root] root</text>
</g>
<!-- [root] root&#45;&gt;[root] meta.count&#45;boundary (EachMode fixup) -->
<g id="edge6" class="edge">
<title>[root] root&#45;&gt;[root] meta.count&#45;boundary (EachMode fixup)</title>
<path fill="none" stroke="black" d="M301.3,-219.83C278.74,-209.71 247.14,-195.53 221.15,-183.87"/>
<polygon fill="black" stroke="black" points="222.41,-180.6 211.85,-179.7 219.54,-186.98 222.41,-180.6"/>
</g>
<!-- [root] root&#45;&gt;[root] provider.azurerm (close) -->
<g id="edge7" class="edge">
<title>[root] root&#45;&gt;[root] provider.azurerm (close)</title>
<path fill="none" stroke="black" d="M359.99,-219.83C382.86,-209.57 415.03,-195.13 441.23,-183.38"/>
<polygon fill="black" stroke="black" points="442.89,-186.47 450.58,-179.18 440.02,-180.08 442.89,-186.47"/>
</g>
</g>
</svg>
